<!--?xml version="1.0" encoding="utf-8"?-->
<!-- Generator: Adobe Illustrator 18.1.1, SVG Export Plug-In . SVG Version: 6.00 Build 0)  -->

<svg version="1.1" id="_x32_" xmlns="http://www.w3.org/2000/svg" xmlns:xlink="http://www.w3.org/1999/xlink" x="0px" y="0px" viewBox="0 0 512 512" style="width: 32px; height: 32px; opacity: 1;" xml:space="preserve">
<style type="text/css">
	.st0{fill:#4B4B4B;}
</style>
<g>
	<path class="st0" d="M164.893,89.791c13.875,0,25.126-11.243,25.126-25.134V25.118C190.019,11.252,178.768,0,164.893,0
		s-25.135,11.252-25.135,25.118v39.538C139.758,78.548,151.018,89.791,164.893,89.791z" style="fill: rgb(75, 75, 75);"></path>
	<path class="st0" d="M350.184,89.791c13.867,0,25.126-11.243,25.126-25.134V25.118C375.31,11.252,364.05,0,350.184,0
		c-13.875,0-25.134,11.252-25.134,25.118v39.538C325.049,78.548,336.309,89.791,350.184,89.791z" style="fill: rgb(75, 75, 75);"></path>
	<path class="st0" d="M437.25,35.807h-39.865v28.849c0,26.04-21.169,47.218-47.201,47.218c-26.031,0-47.209-21.178-47.209-47.218
		V35.807h-90.881v28.849c0,26.04-21.178,47.218-47.2,47.218c-26.032,0-47.209-21.178-47.209-47.218V35.807H74.75
		c-38.977,0-70.575,31.599-70.575,70.575v335.043C4.175,480.401,35.773,512,74.75,512H437.25c38.976,0,70.575-31.599,70.575-70.575
		V106.382C507.825,67.406,476.226,35.807,437.25,35.807z M473.484,441.425c0,19.978-16.256,36.235-36.235,36.235H74.75
		c-19.979,0-36.235-16.257-36.235-36.235V150.984h434.969V441.425z" style="fill: rgb(75, 75, 75);"></path>
	<path class="st0" d="M206.724,440.067c14.224,0,25.755-11.536,25.755-25.755c0-14.228-11.532-25.755-25.755-25.755
		c-14.223,0-25.755,11.527-25.755,25.755C180.968,428.53,192.501,440.067,206.724,440.067z" style="fill: rgb(75, 75, 75);"></path>
	<path class="st0" d="M206.724,341.506c14.224,0,25.755-11.528,25.755-25.755c0-14.218-11.532-25.755-25.755-25.755
		c-14.223,0-25.755,11.536-25.755,25.755C180.968,329.978,192.501,341.506,206.724,341.506z" style="fill: rgb(75, 75, 75);"></path>
	<path class="st0" d="M108.176,440.067c14.224,0,25.755-11.536,25.755-25.755c0-14.228-11.532-25.755-25.755-25.755
		c-14.223,0-25.755,11.527-25.755,25.755C82.421,428.53,93.953,440.067,108.176,440.067z" style="fill: rgb(75, 75, 75);"></path>
	<path class="st0" d="M108.176,341.506c14.224,0,25.755-11.528,25.755-25.755c0-14.218-11.532-25.755-25.755-25.755
		c-14.223,0-25.755,11.536-25.755,25.755C82.421,329.978,93.953,341.506,108.176,341.506z" style="fill: rgb(75, 75, 75);"></path>
	<path class="st0" d="M403.823,242.963c14.224,0,25.755-11.528,25.755-25.755c0-14.227-11.531-25.755-25.755-25.755
		c-14.223,0-25.755,11.528-25.755,25.755C378.068,231.435,389.6,242.963,403.823,242.963z" style="fill: rgb(75, 75, 75);"></path>
	<path class="st0" d="M305.276,242.963c14.224,0,25.755-11.528,25.755-25.755c0-14.227-11.531-25.755-25.755-25.755
		c-14.223,0-25.755,11.528-25.755,25.755C279.52,231.435,291.053,242.963,305.276,242.963z" style="fill: rgb(75, 75, 75);"></path>
	<path class="st0" d="M305.276,341.506c14.224,0,25.755-11.528,25.755-25.755c0-14.218-11.531-25.755-25.755-25.755
		c-14.223,0-25.755,11.536-25.755,25.755C279.52,329.978,291.053,341.506,305.276,341.506z" style="fill: rgb(75, 75, 75);"></path>
	<path class="st0" d="M403.823,341.506c14.224,0,25.755-11.528,25.755-25.755c0-14.218-11.531-25.755-25.755-25.755
		c-14.223,0-25.755,11.536-25.755,25.755C378.068,329.978,389.6,341.506,403.823,341.506z" style="fill: rgb(75, 75, 75);"></path>
	<path class="st0" d="M305.276,440.067c14.224,0,25.755-11.536,25.755-25.755c0-14.228-11.531-25.755-25.755-25.755
		c-14.223,0-25.755,11.527-25.755,25.755C279.52,428.53,291.053,440.067,305.276,440.067z" style="fill: rgb(75, 75, 75);"></path>
	<path class="st0" d="M206.724,242.963c14.224,0,25.755-11.528,25.755-25.755c0-14.227-11.532-25.755-25.755-25.755
		c-14.223,0-25.755,11.528-25.755,25.755C180.968,231.435,192.501,242.963,206.724,242.963z" style="fill: rgb(75, 75, 75);"></path>
</g>
</svg>
